#!OML:ASF X:\für Bonn\!DataBase\2005_08_12_Daniel\c3d\Daniel.ASF
:FULLY-SPECIFIED
:DEGREES
161
root -3.83189 16.4036 -1.07615 383.915 -88.763 -396.515
lowerback 27.8614 -2.99097 4.2092
upperback 1.74962 -3.06748 -1.81202
thorax -13.9087 -1.81567 -3.31269
lowerneck 3.77834 3.47472 -1.12947
upperneck -0.0593517 4.56252 -0.487954
head -0.650273 2.28125 -0.0395135
rclavicle 6.38596e-015 -5.96354e-015
rhumerus 76.1163 -27.4714 -175.486
rradius 9.40237
rwrist 143.613
rhand -21.9191 12.7523
rfingers 7.12502
rthumb 4.48693 -17.1802
lclavicle 6.38596e-015 -5.96354e-015
lhumerus 59.4216 11.2571 108.41
lradius 8.40479
lwrist -83.779
lhand -14.6648 4.00241
lfingers 7.12502
lthumb 11.488 33.6676
rfemur -9.08623 -16.0945 9.66738
rtibia 50.3152
rfoot 344.708 12.1558
rtoes -5.80538
lfemur -192.839 174.554 -190.94
ltibia 52.5695
lfoot -23.814 -13.8192
ltoes 1.52214
162
root -3.85128 16.5075 -1.07758 382.082 -88.7948 -394.349
lowerback 27.3555 -2.94955 4.10418
upperback 1.57736 -3.05235 -1.8127
thorax -13.8338 -1.79945 -3.26968
lowerneck 3.72458 3.4939 -1.15896
upperneck 0.11961 4.58797 -0.462211
head -0.587258 2.29225 -0.0241826
rclavicle 9.19379e-016 5.56597e-015
rhumerus 75.8876 -27.9174 -175.213
rradius 9.45855
rwrist 143.6
rhand -22.0775 12.7123
rfingers 7.12502
rthumb 4.33393 -17.2234
lclavicle 9.19379e-016 5.56597e-015
lhumerus 59.2837 11.5032 108.641
lradius 8.42091
lwrist -83.9574
lhand -14.6322 3.8856
lfingers 7.12502
lthumb 11.5195 33.5491
rfemur -8.14893 -15.0001 10.1963
rtibia 48.1181
rfoot 344.157 10.7204
rtoes -6.30293
lfemur -192.127 175.581 -191.409
ltibia 50.8529
lfoot -23.8201 -12.3617
ltoes 1.00665
163
root -3.87103 16.6045 -1.07841 380.432 -88.8084 -392.371
lowerback 26.8454 -2.91785 4.02877
upperback 1.40269 -3.04094 -1.81731
thorax -13.7597 -1.78716 -3.24695
lowerneck 3.67619 3.50784 -1.19658
upperneck 0.314487 4.60589 -0.435089
head -0.520615 2.29927 -0.00694173
rclavicle 1.758e-014 -5.1684e-015
rhumerus 75.6969 -28.305 -174.967
rradius 9.46878
rwrist 143.561
rhand -22.2227 12.6915
rfingers 7.12502
rthumb 4.19375 -17.247
lclavicle 1.758e-014 -5.1684e-015
lhumerus 59.1525 11.7156 108.884
lradius 8.45246
lwrist -84.1727
lhand -14.5116 3.71677
lfingers 7.12502
lthumb 11.6358 33.3737
rfemur -7.20533 -13.8845 10.7242
rtibia 45.9417
rfoot 343.582 9.24798
rtoes -6.8954
lfemur -191.442 176.651 -191.856
ltibia 49.2027
lfoot -23.8102 -10.8989
ltoes 0.574782
164
root -3.89229 16.6941 -1.07902 378.289 -88.8403 -389.911
lowerback 26.3368 -2.87883 3.91773
upperback 1.21905 -3.02868 -1.81294
thorax -13.6925 -1.77206 -3.19345
lowerneck 3.65917 3.52608 -1.28053
upperneck 0.50177 4.6272 -0.367406
head -0.463865 2.30759 0.0291705
rclavicle 1.28837e-014 5.96354e-015
rhumerus 75.5163 -28.4896 -174.76
rradius 9.48111
rwrist 143.559
rhand -22.229 12.6365
rfingers 7.12502
rthumb 4.18761 -17.3021
lclavicle 1.28837e-014 5.96354e-015
lhumerus 59.0107 11.9464 109.145
lradius 8.48229
lwrist -84.4526
lhand -14.4401 3.58822
lfingers 7.12502
lthumb 11.7047 33.2412
rfemur -6.2602 -12.6747 11.24
rtibia 43.7929
rfoot 343.019 7.70038
rtoes -7.41275
lfemur -190.762 177.801 -192.321
ltibia 47.6108
lfoot -23.8243 -9.42364
ltoes 0.182335
165
root -3.91325 16.7757 -1.07949 376.777 -88.8563 -388.071
lowerback 25.8061 -2.84637 3.83982
upperback 1.04046 -3.0173 -1.82057
thorax -13.608 -1.75998 -3.1732
lowerneck 3.60176 3.52566 -1.32247
upperneck 0.735667 4.62614 -0.295044
head -0.385333 2.30438 0.061515
rclavicle -7.64079e-015 -6.36111e-015
rhumerus 75.4298 -28.5135 -174.637
rradius 9.42182
rwrist 143.504
rhand -22.1472 12.5582
rfingers 7.12502
rthumb 4.26663 -17.3788
lclavicle -7.64079e-015 -6.36111e-015
lhumerus 58.8846 12.1378 109.394
lradius 8.49693
lwrist -84.7313
lhand -14.3948 3.45832
lfingers 7.12502
lthumb 11.7484 33.1089
rfemur -5.35286 -11.4072 11.7804
rtibia 41.6866
rfoot 342.447 6.10284
rtoes -7.89512
lfemur -190.119 179.016 -192.773
ltibia 46.0739
lfoot -23.8667 -7.91875
ltoes -0.0939751
166
root -3.93527 16.8507 -1.08016 374.478 -88.8856 -385.484
lowerback 25.3134 -2.80245 3.7131
upperback 0.86666 -3.00121 -1.80924
thorax -13.5324 -1.74208 -3.10379
lowerneck 3.54477 3.51454 -1.3879
upperneck 0.958668 4.60936 -0.26434
head -0.309899 2.29353 0.0850872
rclavicle -4.96962e-016 -9.14409e-015
rhumerus 75.3029 -28.4869 -174.484
rradius 9.37424
rwrist 143.327
rhand -22.0394 12.5335
rfingers 7.12502
rthumb 4.37068 -17.4014
lclavicle -4.96962e-016 -9.14409e-015
lhumerus 58.7606 12.3637 109.667
lradius 8.51676
lwrist -85.0684
lhand -14.4179 3.2853
lfingers 7.12502
lthumb 11.7261 32.9371
rfemur -4.41826 -10.0511 12.3043
rtibia 39.6264
rfoot 341.87 4.43522
rtoes -8.36377
lfemur -189.444 180.329 -193.253
ltibia 44.5919
lfoot -23.9385 -6.33954
ltoes -0.334662
167
root -3.95704 16.9191 -1.08061 372.187 -88.9091 -382.901
lowerback 24.8389 -2.76558 3.61562
upperback 0.668475 -2.98748 -1.82287
thorax -13.4974 -1.72907 -3.07846
lowerneck 3.56835 3.49888 -1.36559
upperneck 1.15861 4.58798 -0.26505
head -0.252006 2.28085 0.0833807
rclavicle -7.24322e-015 5.96354e-015
rhumerus 75.1982 -28.5102 -174.378
rradius 9.30192
rwrist 143.03
rhand -22.0461 12.5069
rfingers 7.12502
rthumb 4.36425 -17.4282
lclavicle -7.24322e-015 5.96354e-015
lhumerus 58.5965 12.5633 109.905
lradius 8.55285
lwrist -85.3765
lhand -14.4536 3.16723
lfingers 7.12502
lthumb 11.6917 32.821
rfemur -3.5107 -8.59732 12.8434
rtibia 37.6228
rfoot 341.255 2.64311
rtoes -8.93558
lfemur -188.804 181.718 -193.736
ltibia 43.1769
lfoot -24.0665 -4.7115
ltoes -0.573062
168
root -3.97921 16.9812 -1.08165 369.525 -88.9187 -379.952
lowerback 24.4051 -2.73078 3.50652
upperback 0.437215 -2.97424 -1.81583
thorax -13.5204 -1.71545 -3.02128
lowerneck 3.65097 3.48939 -1.44269
upperneck 1.38853 4.56911 -0.22234
head -0.198193 2.26825 0.109784
rclavicle 9.06334e-015 7.95139e-015
rhumerus 75.082 -28.5516 -174.235
rradius 9.21375
rwrist 142.643
rhand -22.0797 12.5375
rfingers 7.12502
rthumb 4.33185 -17.3982
lclavicle 9.06334e-015 7.95139e-015
lhumerus 58.395 12.7936 110.171
lradius 8.62882
lwrist -85.6582
lhand -14.5091 3.01633
lfingers 7.12502
lthumb 11.6382 32.6731
rfemur -2.61399 -7.05567 13.3933
rtibia 35.681
rfoot 340.612 0.804236
rtoes -9.31037
lfemur -188.189 183.192 -194.229
ltibia 41.836
lfoot -24.2307 -3.03683
ltoes -0.855825
